<svg width="45" height="18" viewBox="0 0 45 18" fill="none" xmlns="http://www.w3.org/2000/svg">
<path d="M19.3059 8.45816C2.55049 18.7664 13.9968 4.48657 2.05656 14.3838C2.01503 14.4183 1.94494 14.4152 1.91286 14.3729C-1.98387 9.23346 0.410037 2.74101 6.04989 0.656169C11.7043 -1.43405 18.6172 1.55754 19.3501 8.37461C19.3536 8.40673 19.3348 8.44037 19.3059 8.45816Z" fill="url(#paint0_linear_1_45)"/>
<path d="M4.21181 8.07919V12.6634L4.23252 12.6478C5.43777 11.7407 6.1243 11.2239 7.21029 10.7861V6.9877H4.21181L3.18108 8.47212L4.21181 8.07919Z" fill="white"/>
<path d="M10.9584 12.3578C8.66268 12.6198 9.1312 10.9607 7.95991 10.6987V5.37231L6.92918 5.85256L7.95991 4.36815H10.9584V12.3578Z" fill="white"/>
<path d="M11.708 2.62178V12.2268C12.9262 11.8775 13.6586 11.4965 14.7534 11.0044V1.57395H11.708L10.6773 3.05837L11.708 2.62178Z" fill="white"/>
<path fill-rule="evenodd" clip-rule="evenodd" d="M19.3059 8.45816C10.4189 13.9256 9.4656 12.4759 8.74847 11.3855C8.11353 10.42 7.66375 9.73603 2.05656 14.3838C2.01503 14.4183 1.94494 14.4152 1.91286 14.3729C-1.98387 9.23346 0.410037 2.74101 6.04989 0.656169C11.7043 -1.43405 18.6172 1.55754 19.3501 8.37461C19.3536 8.40673 19.3348 8.44037 19.3059 8.45816ZM18.8593 8.20943C14.7894 10.6998 12.4814 11.6686 11.1319 11.9124C10.4602 12.0338 10.0742 11.9661 9.83547 11.8596C9.59545 11.7526 9.43457 11.5764 9.26884 11.3379C9.22793 11.279 9.18869 11.2193 9.14669 11.1554L9.14446 11.1521C9.10277 11.0887 9.05778 11.0203 9.01113 10.9539C8.91907 10.8228 8.8049 10.6761 8.65575 10.5519C8.50039 10.4226 8.3081 10.3184 8.06744 10.2724C7.83152 10.2273 7.58019 10.2441 7.31289 10.3101C6.79286 10.4384 6.13777 10.7723 5.26546 11.3557C4.44665 11.9034 3.40421 12.6935 2.06024 13.7976C-1.3228 8.94739 0.978628 3.00051 6.22264 1.062C8.9008 0.0719833 11.8684 0.276019 14.2634 1.52807C14.6214 1.5045 14.8198 1.59374 14.8026 1.83369C16.9113 3.12652 18.4844 5.28917 18.8593 8.20943Z" fill="url(#paint1_linear_1_45)"/>
<path d="M6.24094 12.7923C3.97128 14.2023 2.72311 14.9092 0.431374 15.9795L2.96135 15.4992C8.06814 19.6468 14.3931 18.3807 18.0943 13.5782C20.2595 12.162 21.2875 11.3317 22.7795 9.77984C19.4925 11.6815 17.5906 12.5875 14.112 13.9711C7.74018 16.547 8.77091 11.2206 6.24094 12.7923Z" fill="url(#paint2_linear_1_45)"/>
<path d="M44.7279 8.7096C44.8788 8.7096 44.9995 8.82208 44.9995 8.9667C44.9995 9.1073 44.8745 9.21978 44.7279 9.21978C44.577 9.21978 44.452 9.10328 44.452 8.96268C44.452 8.8261 44.577 8.7096 44.7279 8.7096Z" fill="white"/>
<path d="M43.736 8.43634L44.1369 8.8621L44.0938 8.89825C44.0464 8.87014 44.0291 8.8621 44.0033 8.8621C43.9731 8.8621 43.9429 8.87415 43.7921 8.96252C43.5205 9.11917 43.1455 9.21958 42.8265 9.21958C42.4817 9.21958 42.1412 9.1272 41.9214 8.96654C41.6498 8.77374 41.4731 8.42027 41.4731 8.07082C41.4731 7.40004 42.0335 6.92607 42.8265 6.92607C43.1197 6.92607 43.4041 6.99436 43.7748 7.14699C43.8438 7.17912 43.8783 7.18716 43.9041 7.18716C43.93 7.18716 43.9429 7.17912 43.9817 7.15101L44.0334 7.17912L43.7403 7.65309L43.6886 7.62899C43.6972 7.60489 43.6972 7.59686 43.6972 7.58079C43.6972 7.51251 43.6326 7.45627 43.4731 7.38799C43.2619 7.29561 43.0809 7.25946 42.8567 7.25946C42.2834 7.25946 41.9171 7.58079 41.9171 8.08287C41.9171 8.57692 42.2834 8.8862 42.874 8.8862C43.1283 8.8862 43.3524 8.82595 43.5507 8.70144C43.6628 8.62914 43.7145 8.57692 43.7145 8.53675C43.7145 8.51667 43.7102 8.5006 43.6929 8.47249L43.736 8.43634Z" fill="white"/>
<path d="M40.8094 8.7096C40.9602 8.7096 41.0809 8.82208 41.0809 8.9667C41.0809 9.1073 40.9559 9.21978 40.8094 9.21978C40.6585 9.21978 40.5335 9.10328 40.5335 8.96268C40.5335 8.8261 40.6585 8.7096 40.8094 8.7096Z" fill="white"/>
<path d="M40.06 7.09879L39.7971 7.60087L39.7411 7.57677C39.7497 7.54866 39.7497 7.54062 39.7497 7.52456C39.7497 7.47234 39.6937 7.42816 39.5687 7.37594C39.3531 7.28757 39.2023 7.26347 38.9006 7.26347C38.6937 7.26347 38.5514 7.28757 38.4393 7.33979C38.3187 7.39602 38.2454 7.48037 38.2454 7.56874C38.2454 7.70531 38.3747 7.76957 38.7281 7.80572L39.1376 7.84589C39.8661 7.91819 40.1635 8.10697 40.1635 8.49659C40.1635 8.76169 40.0126 8.98662 39.754 9.09909C39.5643 9.18343 39.3402 9.21958 39.0256 9.21958C38.5945 9.21958 38.2928 9.13925 37.9092 8.93039C37.8747 8.9103 37.8445 8.89825 37.8187 8.89825C37.7928 8.89825 37.7669 8.9103 37.7238 8.93842L37.6764 8.9103L38.0126 8.4283L38.0644 8.45642C38.0557 8.48454 38.0514 8.49659 38.0514 8.51667C38.0514 8.57692 38.1031 8.63315 38.2238 8.70947C38.4221 8.82997 38.6893 8.8862 39.0299 8.8862C39.4695 8.8862 39.7626 8.73759 39.7626 8.51667C39.7626 8.356 39.5988 8.2837 39.1161 8.2355L38.698 8.19534C38.1204 8.1391 37.8618 7.95836 37.8618 7.61292C37.8618 7.18314 38.2454 6.92607 38.879 6.92607C39.1721 6.92607 39.4092 6.97026 39.7928 7.09879C39.8402 7.11486 39.8833 7.12289 39.9178 7.12289C39.948 7.12289 39.9652 7.11486 40.004 7.07469L40.06 7.09879Z" fill="white"/>
<path d="M36.5244 7.09879L36.2615 7.60087L36.2054 7.57677C36.2141 7.54866 36.2141 7.54062 36.2141 7.52456C36.2141 7.47234 36.158 7.42816 36.033 7.37594C35.8175 7.28757 35.6666 7.26347 35.3649 7.26347C35.158 7.26347 35.0158 7.28757 34.9037 7.33979C34.783 7.39602 34.7098 7.48037 34.7098 7.56874C34.7098 7.70531 34.8391 7.76957 35.1925 7.80572L35.602 7.84589C36.3304 7.91819 36.6278 8.10697 36.6278 8.49659C36.6278 8.76169 36.477 8.98662 36.2184 9.09909C36.0287 9.18343 35.8046 9.21958 35.4899 9.21958C35.0589 9.21958 34.7572 9.13925 34.3735 8.93039C34.3391 8.9103 34.3089 8.89825 34.283 8.89825C34.2572 8.89825 34.2313 8.9103 34.1882 8.93842L34.1408 8.9103L34.477 8.4283L34.5287 8.45642C34.5201 8.48454 34.5158 8.49659 34.5158 8.51667C34.5158 8.57692 34.5675 8.63315 34.6882 8.70947C34.8865 8.82997 35.1537 8.8862 35.4942 8.8862C35.9339 8.8862 36.227 8.73759 36.227 8.51667C36.227 8.356 36.0632 8.2837 35.5804 8.2355L35.1623 8.19534C34.5848 8.1391 34.3261 7.95836 34.3261 7.61292C34.3261 7.18314 34.7098 6.92607 35.3434 6.92607C35.6365 6.92607 35.8735 6.97026 36.2572 7.09879C36.3046 7.11486 36.3477 7.12289 36.3822 7.12289C36.4123 7.12289 36.4296 7.11486 36.4684 7.07469L36.5244 7.09879Z" fill="white"/>
<path d="M32.3821 9.05911L31.3777 7.42032V8.97075C31.3864 9.06313 31.4122 9.09125 31.5114 9.11936V9.17158H30.8648V9.11936C30.964 9.09125 30.9898 9.06313 30.9984 8.97075V7.1753C30.9898 7.08292 30.964 7.05882 30.8648 7.0307V6.97447H31.7829V7.0307C31.714 7.05078 31.6795 7.0789 31.6795 7.12308C31.6795 7.14718 31.6967 7.19137 31.7312 7.24358L32.4036 8.308L33.0286 7.23957C33.0717 7.17128 33.076 7.15522 33.076 7.12308C33.076 7.07488 33.0588 7.05882 32.9726 7.0307V6.97447H33.9208V7.0307C33.8217 7.0548 33.7958 7.08292 33.7872 7.1753V8.97075C33.7958 9.06313 33.8217 9.09125 33.9208 9.11936V9.17158H33.2269V9.11936C33.326 9.09125 33.3519 9.06313 33.3605 8.97075V7.42032L32.3821 9.05911Z" fill="white"/>
<path d="M28.9476 8.21029V8.84894H30.4088C30.5079 8.8409 30.5381 8.8168 30.5683 8.72442H30.6243V9.29478H30.5683C30.5424 9.2024 30.5079 9.1783 30.4131 9.17027H28.3872V9.11403C28.4864 9.08994 28.5122 9.06182 28.5209 8.96944V7.17399C28.5122 7.08161 28.4864 7.05751 28.3872 7.02939V6.97316H30.3053C30.4002 6.96914 30.439 6.94102 30.4648 6.84864H30.5209V7.41901H30.4648C30.4346 7.32662 30.4045 7.29851 30.3053 7.29449H28.9476V7.88895H29.8226C29.9217 7.88092 29.9519 7.85682 29.9821 7.76444H30.0381V8.3348H29.9821C29.9519 8.24242 29.9217 8.21832 29.8226 8.21029H28.9476Z" fill="white"/>
<path d="M26.9144 8.7418L27.5911 7.25563C27.6084 7.21547 27.6213 7.17128 27.6213 7.13915C27.6213 7.0789 27.5782 7.04275 27.5006 7.02668V6.97447H28.2291V7.0307C28.1084 7.06283 28.0696 7.10702 27.9748 7.32392L27.2722 8.84221C27.2334 8.92255 27.2204 8.96271 27.2204 9.0069C27.2204 9.07116 27.2506 9.1033 27.3368 9.11936V9.17158H26.4661V9.11936C26.5523 9.1033 26.5868 9.07116 26.5868 9.00288C26.5868 8.96673 26.5825 8.95066 26.5308 8.84221L25.8455 7.32392C25.7549 7.11103 25.7118 7.06283 25.5911 7.0307V6.97447H26.3541V7.02668C26.2722 7.04275 26.2248 7.08292 26.2291 7.13915C26.2291 7.17128 26.242 7.21145 26.2636 7.25563L26.9144 8.7418Z" fill="white"/>
<path d="M24.3077 6.92607C24.7172 6.92607 25.0103 7.01846 25.256 7.21929C25.519 7.43217 25.6655 7.74146 25.6655 8.08689C25.6655 8.40019 25.5103 8.72152 25.256 8.92637C25.0146 9.1272 24.7129 9.21958 24.3121 9.21958C23.9069 9.21958 23.6052 9.1272 23.3638 8.92637C23.1052 8.71349 22.9543 8.40019 22.9543 8.07484C22.9543 7.74547 23.1095 7.42414 23.3638 7.21929C23.6095 7.01846 23.9112 6.92607 24.3077 6.92607ZM24.3077 7.25946C23.7646 7.25946 23.3983 7.58882 23.3983 8.07082C23.3983 8.55684 23.7646 8.8862 24.3121 8.8862C24.8509 8.8862 25.2215 8.55684 25.2215 8.08287C25.2215 7.58481 24.8595 7.25946 24.3077 7.25946Z" fill="white"/>
<path d="M22.5014 8.43634L22.9023 8.8621L22.8592 8.89825C22.8118 8.87014 22.7945 8.8621 22.7687 8.8621C22.7385 8.8621 22.7083 8.87415 22.5575 8.96252C22.2859 9.11917 21.9109 9.21958 21.592 9.21958C21.2471 9.21958 20.9066 9.1272 20.6868 8.96654C20.4153 8.77374 20.2385 8.42027 20.2385 8.07082C20.2385 7.40004 20.7989 6.92607 21.592 6.92607C21.8851 6.92607 22.1696 6.99436 22.5402 7.14699C22.6092 7.17912 22.6437 7.18716 22.6695 7.18716C22.6954 7.18716 22.7083 7.17912 22.7471 7.15101L22.7989 7.17912L22.5058 7.65309L22.454 7.62899C22.4627 7.60489 22.4627 7.59686 22.4627 7.58079C22.4627 7.51251 22.398 7.45627 22.2385 7.38799C22.0273 7.29561 21.8463 7.25946 21.6221 7.25946C21.0489 7.25946 20.6825 7.58079 20.6825 8.08287C20.6825 8.57692 21.0489 8.8862 21.6394 8.8862C21.8937 8.8862 22.1178 8.82595 22.3161 8.70144C22.4282 8.62914 22.4799 8.57692 22.4799 8.53675C22.4799 8.51667 22.4756 8.5006 22.4583 8.47249L22.5014 8.43634Z" fill="white"/>
<defs>
<linearGradient id="paint0_linear_1_45" x1="19.3913" y1="9.13982" x2="0.00204337" y2="8.94078" gradientUnits="userSpaceOnUse">
<stop stop-color="#011B98"/>
<stop offset="0.495001" stop-color="#A6CFFD"/>
<stop offset="1" stop-color="#0F2FAD"/>
</linearGradient>
<linearGradient id="paint1_linear_1_45" x1="19.3913" y1="9.13982" x2="0.00204337" y2="8.94078" gradientUnits="userSpaceOnUse">
<stop stop-color="#011B98"/>
<stop offset="0.495001" stop-color="#A6CFFD"/>
<stop offset="1" stop-color="#0F2FAD"/>
</linearGradient>
<linearGradient id="paint2_linear_1_45" x1="22.8266" y1="14.9947" x2="0.441039" y2="14.5295" gradientUnits="userSpaceOnUse">
<stop stop-color="#011B98"/>
<stop offset="0.577976" stop-color="#A6CFFD"/>
<stop offset="1" stop-color="#0F2FAD"/>
</linearGradient>
</defs>
</svg>
